<svg width="301" height="48" viewBox="0 0 301 48" fill="none" xmlns="http://www.w3.org/2000/svg">
<g clip-path="url(#clip0_4_511)">
<path d="M175.98 18.87C175.98 20.09 175.57 21.23 174.89 22.13C175.11 22.42 175.29 22.73 175.44 23.06C176.38 25.1 176.06 27.52 174.6 29.22L165.66 39.76V41.66C165.66 44.84 163.08 47.43 159.89 47.43H154.51C151.33 47.43 148.74 44.84 148.74 41.66V39.76L145.53 35.98C145.37 36.93 145.1 37.87 144.75 38.76C144.02 40.58 142.85 42.19 141.26 43.55C139.76 44.83 137.86 45.82 135.6 46.5C133.52 47.13 131.1 47.43 128.22 47.43H109.06C106.88 47.43 104.99 46.22 104.01 44.46C102.74 45.3 101.25 45.99 99.55 46.5C97.47 47.13 95.05 47.43 92.17 47.43H73.01C70.82 47.43 68.9 46.2 67.93 44.38C67.93 44.38 67.93 44.4 67.91 44.4C66.44 45.42 64.76 46.19 62.89 46.73C61.26 47.2 59.51 47.54 57.68 47.72C55.98 47.89 54.23 47.98 52.49 47.98C50.66 47.98 48.86 47.89 47.12 47.72C45.25 47.54 43.49 47.2 41.86 46.73C39.98 46.19 38.3 45.39 36.84 44.35C36.59 44.17 36.35 43.99 36.11 43.79C36.06 43.84 36 43.89 35.95 43.94C34.51 45.25 32.6 46.2 30.29 46.75C28.41 47.2 26.29 47.43 23.85 47.43H5.79C2.61 47.45 0.02 44.85 0.02 41.67V25.49C0.02 24.25 0.42 23.08 1.1 22.14C0.41 21.23 0 20.09 0 18.87V5.75999C0 2.73999 2.45 0.28999 5.47 0.28999H13.1C15.99 0.28999 18.28 0.85999 20.1 2.02999C20.44 2.24999 20.76 2.48999 21.06 2.74999C21.79 2.19999 22.62 1.71999 23.52 1.31999C25.48 0.43999 27.76 -9.76585e-06 30.33 -9.76585e-06C32.9 -9.76585e-06 35.21 0.43999 37.16 1.30999C39.14 2.19999 40.75 3.46999 41.94 5.08999L42.72 3.42999C43.53 1.71999 45.17 0.54999 47.02 0.32999H50.82C52.55 0.51999 54.09 1.53999 54.95 3.05999C55.88 1.39999 57.67 0.28999 59.7 0.28999H68.77C70.44 0.28999 71.97 0.53999 73.33 1.03999C73.67 1.16999 73.98 1.29999 74.29 1.46999C75.21 0.73999 76.39 0.28999 77.66 0.28999H85.23C87.41 0.28999 89.25 0.56999 90.87 1.13999C92.38 1.67999 93.68 2.42999 94.75 3.36999C94.87 3.25999 95 3.14999 95.13 3.03999C96.44 1.98999 97.96 1.19999 99.66 0.68999C101.21 0.22999 102.91 -0.0100098 104.73 -0.0100098C106.92 -0.0100098 108.9 0.32999 110.62 1.00999C112.53 1.73999 114.14 2.85999 115.36 4.32999C115.6 4.60999 115.81 4.90999 116.01 5.21999L116.85 3.42999C117.75 1.51999 119.69 0.27999 121.8 0.27999H124.33C126.3 0.27999 128.12 1.36999 129.08 3.05999C130.01 1.39999 131.79 0.27999 133.83 0.27999H135.98C137.87 0.27999 139.6 1.22999 140.6 2.82999L143.62 7.57999L146.67 2.79999C147.69 1.21999 149.4 0.27999 151.27 0.27999H153.42C154.19 0.27999 154.92 0.43999 155.58 0.72999C156.24 0.43999 156.97 0.27999 157.74 0.27999H170.5C173.52 0.27999 175.97 2.72999 175.97 5.74999V7.19999C175.97 8.88999 175.21 10.39 174.01 11.4V13.2C175.22 14.21 175.99 15.72 175.99 17.41V18.87H175.98Z" fill="#530F83"/>
<path d="M4.97998 16.87V3.74999C4.97998 3.47999 5.19998 3.26999 5.45998 3.26999H13.09C14.98 3.26999 16.41 3.58999 17.39 4.21999C18.37 4.84999 18.86 5.78999 18.86 7.03999C18.86 7.83999 18.66 8.46999 18.27 8.91999C17.88 9.37999 17.32 9.70999 16.61 9.92999C15.89 10.15 15.05 10.28 14.08 10.34L14.17 10.19C14.88 10.21 15.55 10.26 16.18 10.34C16.81 10.43 17.37 10.59 17.84 10.82C18.32 11.05 18.7 11.37 18.97 11.79C19.25 12.2 19.38 12.74 19.38 13.41C19.38 14.28 19.15 15 18.68 15.57C18.21 16.14 17.57 16.57 16.74 16.86C15.91 17.15 14.96 17.31 13.87 17.34H5.45998C5.18998 17.34 4.97998 17.12 4.97998 16.86V16.87ZM7.86998 9.23999H12.98C13.89 9.23999 14.6 9.10999 15.09 8.83999C15.58 8.56999 15.83 8.10999 15.83 7.45999C15.83 6.80999 15.58 6.34999 15.09 6.07999C14.6 5.80999 13.94 5.67999 13.13 5.67999H7.86998V9.24999V9.23999ZM7.86998 14.96H13.57C14.48 14.96 15.19 14.81 15.68 14.51C16.17 14.21 16.42 13.74 16.42 13.08C16.42 12.6 16.27 12.25 15.99 12.04C15.7 11.82 15.32 11.69 14.84 11.64C14.36 11.59 13.85 11.56 13.3 11.56H7.87998V14.95L7.86998 14.96Z" fill="#FFC538" stroke="#FFC538" stroke-miterlimit="10"/>
<path d="M30.3299 17.63C28.4599 17.63 26.8599 17.34 25.5299 16.75C24.1999 16.16 23.1899 15.32 22.4799 14.24C21.7799 13.15 21.4299 11.85 21.4299 10.32C21.4299 8.78999 21.7799 7.46999 22.4799 6.37999C23.1799 5.28999 24.1999 4.44999 25.5299 3.86999C26.8599 3.27999 28.4599 2.98999 30.3299 2.98999C32.1999 2.98999 33.8199 3.27999 35.1399 3.86999C36.4599 4.45999 37.4699 5.29999 38.1799 6.37999C38.8799 7.46999 39.2399 8.77999 39.2399 10.32C39.2399 11.86 38.8899 13.15 38.1799 14.24C37.4799 15.33 36.4599 16.17 35.1399 16.75C33.8199 17.34 32.2199 17.63 30.3299 17.63ZM30.3299 15.13C31.4899 15.13 32.5099 14.96 33.3899 14.61C34.2699 14.26 34.9599 13.73 35.4599 13.02C35.9599 12.31 36.2099 11.41 36.2099 10.32C36.2099 9.22999 35.9599 8.32999 35.4599 7.61999C34.9599 6.90999 34.2699 6.37999 33.3899 6.01999C32.5099 5.66999 31.4899 5.48999 30.3299 5.48999C29.1699 5.48999 28.1599 5.66999 27.2599 6.01999C26.3599 6.37999 25.6599 6.90999 25.1499 7.61999C24.6399 8.32999 24.3899 9.22999 24.3899 10.32C24.3899 11.41 24.6399 12.31 25.1499 13.02C25.6599 13.73 26.3599 14.26 27.2599 14.61C28.1599 14.96 29.1799 15.13 30.3299 15.13Z" fill="#FFC538" stroke="#FFC538" stroke-miterlimit="10"/>
<path d="M50.1901 3.27997H47.6601C47.4701 3.27997 47.3001 3.38997 47.2301 3.55997L41.0701 16.67C40.9201 16.99 41.1501 17.35 41.5001 17.35H43.5601C43.7501 17.35 43.9201 17.24 44.0001 17.07L45.2601 14.29H52.6101L53.8801 17.07C53.9601 17.24 54.1301 17.35 54.3201 17.35H56.4101C56.7601 17.35 57.0001 16.98 56.8401 16.66L50.6201 3.54997C50.5401 3.37997 50.3701 3.27997 50.1901 3.27997ZM46.3601 11.87L48.9301 6.19997L51.5201 11.87H46.3601Z" fill="#FFC538" stroke="#FFC538" stroke-miterlimit="10"/>
<path d="M59.21 16.87V3.74999C59.21 3.47999 59.43 3.26999 59.69 3.26999H68.76C69.85 3.26999 70.79 3.41999 71.6 3.71999C72.41 4.01999 73.03 4.47999 73.48 5.10999C73.93 5.73999 74.15 6.54999 74.15 7.53999C74.15 8.20999 74.03 8.76999 73.8 9.23999C73.57 9.69999 73.25 10.08 72.83 10.37C72.42 10.66 71.94 10.88 71.4 11.03C70.86 11.18 70.29 11.28 69.68 11.32L69.38 11.15C70.4 11.16 71.23 11.25 71.88 11.4C72.53 11.55 73.02 11.83 73.35 12.23C73.68 12.63 73.84 13.22 73.84 14V16.87C73.84 17.14 73.62 17.35 73.36 17.35H71.43C71.16 17.35 70.95 17.13 70.95 16.87V14.2C70.95 13.66 70.86 13.25 70.67 12.95C70.48 12.65 70.14 12.45 69.66 12.33C69.18 12.21 68.47 12.16 67.56 12.16H62.1V16.88C62.1 17.15 61.88 17.36 61.62 17.36H59.69C59.42 17.36 59.21 17.14 59.21 16.88V16.87ZM62.1 9.88999H68.76C69.57 9.88999 70.19 9.68999 70.62 9.29999C71.05 8.90999 71.26 8.37999 71.26 7.70999C71.26 7.03999 71.05 6.58999 70.62 6.24999C70.19 5.91999 69.57 5.74999 68.76 5.74999H62.1V9.87999V9.88999Z" fill="#FFC538" stroke="#FFC538" stroke-miterlimit="10"/>
<path d="M85.2299 3.26999C86.8099 3.26999 88.1299 3.45999 89.1899 3.83999C90.2499 4.21999 91.0899 4.72999 91.7199 5.36999C92.3499 6.01999 92.7999 6.75999 93.0699 7.59999C93.3399 8.43999 93.4699 9.32999 93.4699 10.25C93.4699 11.17 93.3199 12.07 93.0199 12.93C92.7199 13.79 92.2499 14.54 91.6099 15.2C90.9599 15.86 90.1199 16.38 89.0599 16.77C87.9999 17.16 86.7299 17.35 85.2199 17.35H77.6499C77.3799 17.35 77.1699 17.13 77.1699 16.87V3.74999C77.1699 3.47999 77.3899 3.26999 77.6499 3.26999H85.2199H85.2299ZM80.0799 14.86H85.1699C86.2099 14.86 87.0799 14.73 87.7699 14.48C88.4599 14.23 89.0099 13.88 89.4099 13.45C89.8199 13.01 90.1099 12.52 90.2799 11.97C90.4499 11.42 90.5399 10.85 90.5399 10.25C90.5399 9.64999 90.4499 9.08999 90.2799 8.54999C90.1099 8.00999 89.8199 7.53999 89.4099 7.10999C88.9999 6.68999 88.4599 6.35999 87.7699 6.10999C87.0799 5.85999 86.2099 5.73999 85.1699 5.73999H80.0799V14.85V14.86Z" fill="#FFC538" stroke="#FFC538" stroke-miterlimit="10"/>
<path d="M113.14 10.98V16.86C113.14 17.13 112.92 17.34 112.66 17.34H111.13C110.85 17.34 110.64 17.11 110.65 16.84C110.66 16.52 110.69 16.17 110.72 15.79C110.78 15.2 110.86 14.61 110.94 14C110.98 13.76 111.01 13.54 111.04 13.31C110.7 14.42 110.1 15.34 109.25 16.06C108.03 17.1 106.4 17.63 104.39 17.63C103.09 17.63 101.91 17.48 100.86 17.17C99.81 16.87 98.9 16.41 98.14 15.8C97.38 15.19 96.79 14.44 96.39 13.53C95.98 12.63 95.77 11.6 95.77 10.42C95.77 9.23998 95.99 8.17998 96.41 7.25998C96.84 6.33998 97.45 5.55998 98.24 4.91998C99.03 4.27998 99.97 3.79998 101.07 3.46998C102.17 3.13998 103.38 2.97998 104.71 2.97998C106.29 2.97998 107.66 3.20998 108.8 3.64998C109.94 4.08998 110.85 4.70998 111.51 5.50998C112.05 6.15998 112.4 6.91998 112.55 7.76998C112.6 8.06998 112.39 8.35998 112.08 8.35998H110.17C109.97 8.35998 109.8 8.22998 109.73 8.04998C109.54 7.59998 109.27 7.19998 108.92 6.83998C108.49 6.40998 107.93 6.07998 107.23 5.83998C106.53 5.59998 105.7 5.47998 104.71 5.47998C103.45 5.47998 102.37 5.68998 101.47 6.09998C100.58 6.49998 99.9 7.07998 99.44 7.80998C98.98 8.54998 98.74 9.41998 98.74 10.42C98.74 11.42 98.95 12.23 99.35 12.93C99.76 13.64 100.38 14.18 101.24 14.55C102.09 14.93 103.17 15.12 104.49 15.12C105.51 15.12 106.4 14.98 107.17 14.71C107.95 14.45 108.59 14.08 109.12 13.62C109.56 13.23 109.9 12.8 110.12 12.33H105.21C104.94 12.33 104.73 12.11 104.73 11.85V10.96C104.73 10.69 104.95 10.48 105.21 10.48H112.65C112.92 10.48 113.13 10.7 113.13 10.96L113.14 10.98Z" fill="#FFC538" stroke="#FFC538" stroke-miterlimit="10"/>
<path d="M124.32 3.27997H121.79C121.6 3.27997 121.43 3.38997 121.36 3.55997L115.2 16.67C115.05 16.99 115.28 17.35 115.63 17.35H117.69C117.88 17.35 118.05 17.24 118.13 17.07L119.26 14.57C119.34 14.4 119.51 14.29 119.7 14.29H126.44C126.63 14.29 126.8 14.4 126.88 14.57L128.02 17.07C128.1 17.24 128.27 17.35 128.46 17.35H130.55C130.9 17.35 131.14 16.98 130.98 16.66L124.76 3.54997C124.68 3.37997 124.51 3.27997 124.33 3.27997H124.32ZM120.8 11.19L122.62 7.15997C122.79 6.77997 123.32 6.77997 123.49 7.15997L125.33 11.19C125.48 11.51 125.24 11.87 124.89 11.87H121.22C120.87 11.87 120.64 11.51 120.78 11.19H120.8Z" fill="#FFC538" stroke="#FFC538" stroke-miterlimit="10"/>
<path d="M153.9 3.75997V16.87C153.9 17.14 153.68 17.35 153.42 17.35H151.49C151.22 17.35 151.01 17.13 151.01 16.87V10.04C151.01 9.55997 150.39 9.37997 150.13 9.77997L145.39 17.13C145.3 17.27 145.15 17.35 144.99 17.35H142.27C142.11 17.35 141.96 17.27 141.87 17.13L137.13 9.80997C136.87 9.40997 136.25 9.58997 136.25 10.07V16.87C136.25 17.14 136.03 17.35 135.77 17.35H133.84C133.57 17.35 133.36 17.13 133.36 16.87V3.75997C133.36 3.48997 133.58 3.27997 133.84 3.27997H135.99C136.15 3.27997 136.31 3.35997 136.4 3.49997L143.22 14.21C143.41 14.51 143.84 14.51 144.03 14.21L150.89 3.49997C150.98 3.35997 151.13 3.27997 151.29 3.27997H153.44C153.71 3.27997 153.92 3.49997 153.92 3.75997H153.9Z" fill="#FFC538" stroke="#FFC538" stroke-miterlimit="10"/>
<path d="M160.14 11.95V14.45C160.14 14.72 160.36 14.93 160.62 14.93H170.51C170.78 14.93 170.99 15.15 170.99 15.41V16.86C170.99 17.13 170.77 17.34 170.51 17.34H157.72C157.45 17.34 157.24 17.12 157.24 16.86V3.74999C157.24 3.47999 157.46 3.26999 157.72 3.26999H170.49C170.76 3.26999 170.97 3.48999 170.97 3.74999V5.19999C170.97 5.46999 170.75 5.67999 170.49 5.67999H160.62C160.35 5.67999 160.14 5.89999 160.14 6.15999V8.69999C160.14 8.96999 160.36 9.17999 160.62 9.17999H168.53C168.8 9.17999 169.01 9.39999 169.01 9.65999V10.98C169.01 11.25 168.79 11.46 168.53 11.46H160.62C160.35 11.46 160.14 11.68 160.14 11.94V11.95Z" fill="#FFC538" stroke="#FFC538" stroke-miterlimit="10"/>
<path d="M33.06 33.22C32.57 32.68 31.88 32.28 30.98 32.03C30.1 31.78 29.06 31.6 27.89 31.53C27.5 31.5 27.1 31.48 26.69 31.48C27.42 31.41 28.09 31.33 28.7 31.22C30.07 30.99 31.1 30.58 31.83 29.99C32.56 29.4 32.92 28.55 32.92 27.44C32.92 25.7 32.07 24.49 30.37 23.79C28.68 23.09 26.04 22.73 22.46 22.73H5.79002C5.36002 22.73 5.02002 23.07 5.02002 23.5V39.68C5.02002 40.11 5.36002 40.45 5.79002 40.45H23.85C25.88 40.45 27.64 40.27 29.14 39.9C30.63 39.55 31.79 38.99 32.6 38.25C33.41 37.51 33.82 36.58 33.82 35.43C33.82 34.49 33.56 33.76 33.06 33.22ZM11.95 27.93H22.69C23.66 27.93 24.37 28.01 24.81 28.19C25.24 28.36 25.46 28.66 25.46 29.09C25.46 29.49 25.24 29.79 24.81 29.97C24.37 30.15 23.66 30.24 22.69 30.24H11.95V27.92V27.93ZM25.96 34.96C25.53 35.15 24.82 35.24 23.85 35.24H11.95V32.91H23.85C24.5 32.91 25.02 32.96 25.42 33.04C25.83 33.12 26.13 33.25 26.32 33.41C26.51 33.57 26.61 33.8 26.61 34.07C26.61 34.48 26.39 34.77 25.95 34.95L25.96 34.96Z" fill="#FFC538" stroke="#FFC538" stroke-miterlimit="10"/>
<path d="M61.4601 30.34V23.5C61.4601 23.07 61.8001 22.73 62.2301 22.73H67.6101C68.0401 22.73 68.3801 23.07 68.3801 23.5V31.59C68.3801 33.16 68.0901 34.49 67.5101 35.59C66.9301 36.69 66.1201 37.59 65.0901 38.3C64.0601 39.01 62.8701 39.56 61.5201 39.95C60.1701 40.34 58.7301 40.61 57.1901 40.77C55.6501 40.93 54.0801 41.01 52.5001 41.01C50.8201 41.01 49.2001 40.93 47.6301 40.77C46.0601 40.61 44.6101 40.34 43.2701 39.95C41.9301 39.56 40.7601 39.01 39.7701 38.3C38.7701 37.59 37.9901 36.69 37.4301 35.59C36.8701 34.49 36.5901 33.16 36.5901 31.59V23.5C36.5901 23.07 36.9301 22.73 37.3601 22.73H42.7401C43.1701 22.73 43.5101 23.07 43.5101 23.5V30.34C43.5101 31.82 43.8701 32.94 44.5901 33.72C45.3101 34.5 46.3401 35.03 47.6801 35.31C49.0201 35.6 50.6301 35.74 52.5101 35.74C54.3901 35.74 55.9201 35.6 57.2701 35.31C58.6201 35.02 59.6501 34.49 60.3801 33.72C61.1101 32.95 61.4701 31.82 61.4701 30.34H61.4601Z" fill="#FFC538" stroke="#FFC538" stroke-miterlimit="10"/>
<path d="M92.19 22.73C94.68 22.73 96.74 22.97 98.36 23.45C99.98 23.93 101.26 24.58 102.18 25.41C103.1 26.24 103.75 27.19 104.13 28.25C104.51 29.31 104.7 30.42 104.7 31.59C104.7 32.76 104.49 33.86 104.06 34.93C103.64 35.99 102.94 36.94 101.97 37.77C101 38.6 99.72 39.25 98.12 39.73C96.52 40.21 94.54 40.45 92.18 40.45H73.02C72.59 40.45 72.25 40.11 72.25 39.68V23.51C72.25 23.08 72.59 22.74 73.02 22.74H92.18L92.19 22.73ZM79.18 34.91H91.91C92.94 34.91 93.82 34.84 94.54 34.7C95.26 34.56 95.84 34.35 96.27 34.08C96.7 33.8 97.02 33.46 97.21 33.04C97.4 32.62 97.5 32.14 97.5 31.59C97.5 31.04 97.4 30.55 97.21 30.14C97.02 29.73 96.7 29.38 96.27 29.1C95.84 28.82 95.26 28.62 94.54 28.48C93.82 28.34 92.94 28.27 91.91 28.27H79.18V34.91Z" fill="#FFC538" stroke="#FFC538" stroke-miterlimit="10"/>
<path d="M128.23 22.73C130.72 22.73 132.78 22.97 134.4 23.45C136.02 23.93 137.3 24.58 138.22 25.41C139.14 26.24 139.79 27.19 140.17 28.25C140.55 29.31 140.74 30.42 140.74 31.59C140.74 32.76 140.53 33.86 140.1 34.93C139.68 35.99 138.98 36.94 138.01 37.77C137.04 38.6 135.76 39.25 134.16 39.73C132.56 40.21 130.58 40.45 128.22 40.45H109.06C108.63 40.45 108.29 40.11 108.29 39.68V23.51C108.29 23.08 108.63 22.74 109.06 22.74H128.22L128.23 22.73ZM115.22 34.91H127.95C128.98 34.91 129.86 34.84 130.58 34.7C131.3 34.56 131.88 34.35 132.31 34.08C132.74 33.8 133.06 33.46 133.25 33.04C133.44 32.62 133.54 32.14 133.54 31.59C133.54 31.04 133.44 30.55 133.25 30.14C133.06 29.73 132.74 29.38 132.31 29.1C131.88 28.82 131.3 28.62 130.58 28.48C129.86 28.34 128.98 28.27 127.95 28.27H115.22V34.91Z" fill="#FFC538" stroke="#FFC538" stroke-miterlimit="10"/>
<path d="M170.8 23.99L160.67 35.93V39.67C160.67 40.1 160.33 40.44 159.9 40.44H154.52C154.09 40.44 153.75 40.1 153.75 39.67V35.93L143.62 23.99C143.2 23.49 143.55 22.72 144.21 22.72H150.35C150.59 22.72 150.81 22.83 150.95 23.01L157.25 30.96L163.49 23.01C163.64 22.82 163.86 22.72 164.1 22.72H170.23C170.89 22.72 171.24 23.49 170.82 23.99H170.8Z" fill="#FFC538" stroke="#FFC538" stroke-miterlimit="10"/>
<path d="M211.82 44.94C211.27 44.93 210.71 44.94 210.16 44.94C208.35 44.94 206.89 44.14 205.97 42.68L205.72 42.28C205.45 41.86 205.18 41.43 204.92 41.01C204.92 41.01 203.96 39.44 203.84 39.26C203.77 39.38 203.7 39.5 203.63 39.61C203.32 40.12 203.01 40.64 202.69 41.15C202.23 41.88 201.8 42.53 201.36 43.13C200.57 44.21 199.37 44.85 197.97 44.92C197.6 44.94 197.24 44.95 196.88 44.95H192.95H189.45C188.97 44.95 188.4 44.94 187.8 44.86C185.71 44.6 184.38 43.02 184.49 40.93C184.53 40.27 184.63 39.56 184.8 38.78C185.13 37.29 185.71 35.79 186.63 34.06C187.36 32.68 188.12 31.31 188.87 29.93C188.87 29.93 190.14 27.62 190.24 27.44C190.17 27.44 189.47 27.41 189.47 27.41C188.54 27.37 187.64 27.22 186.78 26.94C184.84 26.32 183.52 24.82 183.07 22.73C182.71 21.09 182.81 18.66 185.29 16.45C186.62 15.27 188.21 14.3 190.31 13.39C191.98 12.67 193.65 12.09 195.45 11.5C195.58 10.22 195.83 8.71999 196.62 7.23999C197.9 4.83999 200.04 3.41999 202.8 3.13999C203.16 3.09999 203.51 3.07999 203.87 3.07999C204.87 3.07999 205.86 3.22999 206.79 3.52999C208.78 4.16999 210.33 5.57999 211.26 7.59999C211.79 8.75999 212.12 10.03 212.25 11.5C212.5 11.58 213.55 11.95 213.55 11.95C214.61 12.33 215.68 12.7 216.73 13.1C218.53 13.78 220.08 14.62 221.47 15.67C222.44 16.4 223.63 17.44 224.3 19.06C225.19 21.26 224.87 23.48 223.38 25.31C222.34 26.6 220.89 26.96 220.2 27.12C219.28 27.34 218.43 27.38 217.67 27.41H217.49C217.71 27.81 217.93 28.21 218.15 28.61C218.61 29.45 219.08 30.28 219.53 31.12C220.23 32.43 221.01 33.91 221.71 35.4C222.42 36.91 222.86 38.31 223.08 39.67C223.15 40.13 223.2 40.55 223.21 40.97C223.27 43.09 221.89 44.64 219.78 44.84C219.31 44.89 218.84 44.91 218.37 44.92C217.79 44.92 217.21 44.92 216.63 44.92H211.85L211.82 44.94Z" fill="#530F83"/>
<path d="M203.84 5.71C204.56 5.71 205.26 5.81 205.96 6.04C207.34 6.48 208.26 7.43 208.85 8.71C209.3 9.69 209.53 10.74 209.62 11.82C209.66 12.26 209.68 12.69 209.7 13.13C209.7 13.33 209.78 13.46 209.98 13.52C210.69 13.75 211.4 13.99 212.1 14.24C213.33 14.68 214.56 15.11 215.78 15.57C217.24 16.12 218.62 16.84 219.88 17.78C220.7 18.4 221.45 19.09 221.85 20.06C222.37 21.35 222.2 22.58 221.33 23.66C220.89 24.21 220.23 24.41 219.56 24.58C218.85 24.75 218.12 24.77 217.39 24.8C216.72 24.83 216.05 24.84 215.38 24.89C215.1 24.91 214.81 24.99 214.55 25.11C214 25.36 213.98 25.6 214.06 26.11C214.16 26.75 214.44 27.34 214.74 27.91C215.55 29.4 216.39 30.88 217.19 32.38C217.92 33.75 218.65 35.13 219.31 36.54C219.84 37.67 220.27 38.86 220.47 40.11C220.52 40.43 220.56 40.75 220.56 41.07C220.58 41.79 220.22 42.19 219.5 42.26C219.11 42.3 218.72 42.32 218.32 42.32C217.75 42.32 217.17 42.32 216.6 42.32C215.88 42.32 215.17 42.32 214.45 42.32C213.6 42.32 212.74 42.31 211.89 42.31C211.3 42.31 210.71 42.31 210.12 42.32C210.11 42.32 210.09 42.32 210.08 42.32C209.25 42.32 208.63 41.98 208.18 41.28C207.83 40.73 207.48 40.19 207.14 39.63C206.46 38.53 205.79 37.41 205.09 36.32C204.89 36 204.63 35.71 204.36 35.45C204.16 35.25 203.98 35.15 203.81 35.15C203.64 35.15 203.46 35.25 203.27 35.46C202.96 35.79 202.67 36.15 202.43 36.54C201.76 37.61 201.12 38.69 200.45 39.76C200.06 40.38 199.66 40.99 199.22 41.58C198.88 42.04 198.39 42.26 197.82 42.29C197.5 42.31 197.18 42.31 196.85 42.32C195.55 42.32 194.25 42.32 192.96 42.32C191.78 42.32 190.61 42.32 189.43 42.32C188.99 42.32 188.54 42.31 188.1 42.25C187.39 42.16 187.05 41.78 187.08 41.06C187.11 40.49 187.2 39.91 187.33 39.35C187.65 37.92 188.23 36.57 188.92 35.28C189.93 33.37 190.98 31.49 192.01 29.6C192.55 28.62 193.11 27.65 193.46 26.58C193.54 26.34 193.56 26.08 193.6 25.83C193.64 25.56 193.5 25.38 193.29 25.23C192.98 25.01 192.62 24.92 192.25 24.9C191.34 24.85 190.44 24.82 189.53 24.78C188.85 24.75 188.19 24.64 187.54 24.43C186.42 24.07 185.84 23.28 185.6 22.17C185.26 20.61 185.88 19.41 187 18.41C188.27 17.28 189.75 16.48 191.31 15.81C193.16 15.02 195.06 14.39 196.96 13.77C197.19 13.7 197.4 13.6 197.63 13.53C197.84 13.46 197.92 13.32 197.93 13.11C197.95 12.69 197.97 12.27 198.01 11.86C198.13 10.69 198.33 9.54 198.9 8.49C199.78 6.84 201.18 5.96 203.03 5.76C203.3 5.73 203.56 5.72 203.83 5.72M203.83 0.470001C203.39 0.470001 202.94 0.490001 202.5 0.540001C198.88 0.910001 195.96 2.86 194.27 6.02C193.62 7.23 193.26 8.45 193.05 9.54C191.76 9.98 190.51 10.45 189.24 10.99C186.88 12.01 185.06 13.12 183.51 14.5C180.84 16.88 179.76 20 180.47 23.29C181.12 26.29 183.12 28.54 185.95 29.44C186 29.45 186.04 29.47 186.09 29.48C185.49 30.58 184.88 31.7 184.28 32.82C183.25 34.76 182.6 36.47 182.21 38.2C182 39.13 181.88 39.97 181.84 40.79C181.66 44.22 184.02 47.02 187.44 47.46C188.19 47.55 188.89 47.57 189.42 47.57C190.6 47.57 191.78 47.57 192.96 47.57H196.69H196.86C197.26 47.57 197.67 47.56 198.07 47.54C200.25 47.43 202.21 46.39 203.46 44.68C203.57 44.52 203.69 44.36 203.8 44.2C205.05 46.1 206.97 47.28 209.18 47.53V47.57H209.77C209.87 47.57 209.96 47.57 210.06 47.57H210.18C210.28 47.57 210.38 47.57 210.48 47.57H214.44H215.51H216.59C217.17 47.57 217.76 47.57 218.34 47.57C218.86 47.57 219.4 47.54 219.99 47.48C223.45 47.15 225.9 44.39 225.8 40.92C225.79 40.39 225.73 39.86 225.64 39.28C225.38 37.67 224.87 36.05 224.05 34.31C223.32 32.75 222.52 31.24 221.81 29.91C221.73 29.77 221.66 29.62 221.58 29.48C222.61 29.16 224.17 28.49 225.39 26.98C227.48 24.4 227.95 21.16 226.7 18.09C225.79 15.84 224.16 14.44 223.02 13.59C221.43 12.39 219.67 11.44 217.63 10.67C216.61 10.28 215.58 9.92 214.59 9.57C214.37 8.48 214.05 7.48 213.61 6.53C212.36 3.82 210.27 1.92 207.56 1.05C206.36 0.670001 205.11 0.470001 203.83 0.470001Z" fill="#530F83"/>
<path d="M292.97 44.94C289.32 44.94 285.68 44.94 282.03 44.94H274.76C274.35 44.94 273.85 44.93 273.3 44.82C271.07 44.36 269.47 42.4 269.42 40.04C269.39 38.72 269.91 37.49 270.79 36.57C270.53 33.77 271.98 31.31 274.39 30.24C274.91 28.87 275.41 27.42 275.74 25.96C275.92 25.14 276.08 24.32 276.24 23.46C275.79 23.16 275.4 22.79 275.06 22.34C274.36 21.4 274.01 20.3 274.07 19.14C274.13 17.85 274.66 16.69 275.57 15.8C274.82 14.22 274.58 12.46 274.86 10.58C275.21 8.28 276.43 6.28 278.4 4.81C279.91 3.68 281.72 3.09 283.65 3.09C286.24 3.09 288.69 4.18 290.37 6.08C291.98 7.9 292.78 10.36 292.57 12.85C292.48 13.89 292.22 14.88 291.8 15.8C291.89 15.89 291.98 15.98 292.07 16.08C292.98 17.12 293.41 18.47 293.28 19.89C293.14 21.38 292.29 22.7 291.08 23.5C291.25 24.47 291.46 25.44 291.72 26.41C292.08 27.75 292.55 29.1 293.01 30.31C294.19 30.88 295.21 31.85 295.86 33.05C296.46 34.17 296.72 35.39 296.61 36.61C297.67 37.73 298.17 39.3 297.88 40.93C297.52 42.91 295.6 44.96 292.98 44.96L292.97 44.94Z" fill="#530F83"/>
<path d="M283.65 5.71C285.42 5.71 287.18 6.43 288.41 7.81C290.62 10.3 290.62 14.6 287.59 17.01C287.77 17.01 287.93 17.01 288.09 17.01C288.18 17.01 288.27 17.01 288.36 17.01C289.79 17.06 290.8 18.2 290.66 19.62C290.57 20.6 289.76 21.46 288.78 21.61C288.6 21.64 288.41 21.65 288.18 21.68C288.21 21.95 288.25 22.23 288.28 22.5C288.48 24.04 288.78 25.56 289.18 27.05C289.64 28.79 290.26 30.47 290.91 32.14C290.97 32.29 291.04 32.37 291.2 32.4C293.02 32.81 294.62 35.03 293.76 37.34C293.72 37.45 293.67 37.56 293.61 37.69C293.67 37.72 293.74 37.76 293.8 37.78C294.91 38.2 295.49 39.25 295.28 40.42C295.14 41.21 294.28 42.28 292.97 42.28C287.08 42.27 281.19 42.28 275.3 42.28C275.12 42.28 274.94 42.28 274.77 42.28C274.46 42.28 274.14 42.27 273.84 42.21C272.78 41.99 272.08 41.07 272.06 39.94C272.04 38.94 272.73 38.03 273.75 37.73C273.78 37.73 273.8 37.71 273.81 37.71C273.68 37.27 273.5 36.87 273.44 36.44C273.17 34.35 274.36 32.76 276.22 32.37C276.31 32.35 276.42 32.28 276.45 32.2C277.19 30.34 277.88 28.45 278.33 26.5C278.67 24.99 278.92 23.46 279.21 21.94C279.23 21.85 279.22 21.76 279.23 21.66C278.42 21.62 277.7 21.41 277.2 20.73C276.87 20.29 276.7 19.79 276.73 19.24C276.77 18.49 277.09 17.88 277.7 17.43C278.24 17.03 278.85 16.99 279.51 16.99C279.6 16.99 279.7 16.99 279.79 16.99C277.91 15.36 277.12 13.35 277.48 10.95C277.73 9.26 278.63 7.91 279.99 6.89C281.07 6.08 282.37 5.69 283.67 5.69M283.67 0.440002C281.17 0.440002 278.81 1.22 276.85 2.69C274.32 4.58 272.74 7.17 272.29 10.17C272.02 11.96 272.14 13.69 272.62 15.31C271.94 16.4 271.54 17.65 271.48 18.99C271.39 20.76 271.92 22.46 272.99 23.89C273.11 24.06 273.25 24.23 273.41 24.4C273.35 24.72 273.28 25.04 273.21 25.36C272.98 26.36 272.67 27.37 272.31 28.36C269.8 29.88 268.23 32.57 268.16 35.66C267.27 36.93 266.78 38.47 266.82 40.08C266.91 43.67 269.37 46.67 272.81 47.37C273.59 47.53 274.28 47.55 274.79 47.55H275.11H275.32C277.57 47.55 279.8 47.55 282.04 47.55C285.69 47.55 289.34 47.55 292.98 47.55C297.13 47.55 299.94 44.36 300.48 41.36C300.86 39.27 300.38 37.25 299.26 35.64C299.2 34.3 298.84 32.97 298.18 31.77C297.45 30.43 296.39 29.29 295.15 28.48C294.82 27.57 294.52 26.64 294.27 25.71C294.16 25.29 294.06 24.86 293.96 24.44C295.04 23.26 295.75 21.75 295.9 20.11C296.06 18.38 295.67 16.71 294.78 15.3C294.99 14.58 295.13 13.82 295.2 13.05C295.48 9.85 294.44 6.66 292.35 4.31C290.17 1.85 287 0.440002 283.66 0.440002H283.67Z" fill="#530F83"/>
<path d="M232.25 3.07999H261.93C265.29 3.07999 268.02 5.80999 268.02 9.16999V38.85C268.02 42.21 265.29 44.94 261.93 44.94H232.25C228.89 44.94 226.16 42.21 226.16 38.85V9.16999C226.16 5.80999 228.89 3.08999 232.24 3.08999L232.25 3.07999Z" fill="#530F83"/>
<path d="M261.93 5.70999C263.84 5.70999 265.39 7.25999 265.39 9.16999V38.85C265.39 40.76 263.84 42.31 261.93 42.31H232.25C230.34 42.31 228.79 40.76 228.79 38.85V9.16999C228.79 7.25999 230.34 5.70999 232.25 5.70999H261.93ZM261.93 0.459991H232.25C227.45 0.459991 223.54 4.36999 223.54 9.16999V38.85C223.54 43.65 227.45 47.56 232.25 47.56H261.93C266.73 47.56 270.64 43.65 270.64 38.85V9.16999C270.64 4.36999 266.73 0.459991 261.93 0.459991Z" fill="#530F83"/>
<path d="M238 19.73C234.74 19.73 232.08 17.07 232.08 13.81C232.08 10.55 234.74 7.88998 238 7.88998C241.26 7.88998 243.92 10.55 243.92 13.81C243.92 17.07 241.26 19.73 238 19.73Z" fill="#530F83"/>
<path d="M238 10.52C239.82 10.52 241.29 11.99 241.29 13.81C241.29 15.63 239.82 17.1 238 17.1C236.18 17.1 234.71 15.63 234.71 13.81C234.71 11.99 236.18 10.52 238 10.52ZM238 5.26999C233.29 5.26999 229.45 9.09999 229.45 13.82C229.45 18.54 233.28 22.37 238 22.37C242.72 22.37 246.55 18.54 246.55 13.82C246.55 9.09999 242.72 5.26999 238 5.26999Z" fill="#530F83"/>
<path d="M256.17 19.73C252.91 19.73 250.25 17.07 250.25 13.81C250.25 10.55 252.91 7.88998 256.17 7.88998C259.43 7.88998 262.09 10.55 262.09 13.81C262.09 17.07 259.43 19.73 256.17 19.73Z" fill="#530F83"/>
<path d="M256.17 10.52C257.99 10.52 259.46 11.99 259.46 13.81C259.46 15.63 257.99 17.1 256.17 17.1C254.35 17.1 252.88 15.63 252.88 13.81C252.88 11.99 254.35 10.52 256.17 10.52ZM256.17 5.26999C251.46 5.26999 247.62 9.09999 247.62 13.82C247.62 18.54 251.45 22.37 256.17 22.37C260.89 22.37 264.72 18.54 264.72 13.82C264.72 9.09999 260.89 5.26999 256.17 5.26999Z" fill="#530F83"/>
<path d="M238 29.93C234.74 29.93 232.08 27.27 232.08 24.01C232.08 20.75 234.74 18.09 238 18.09C241.26 18.09 243.92 20.75 243.92 24.01C243.92 27.27 241.26 29.93 238 29.93Z" fill="#530F83"/>
<path d="M238 20.72C239.82 20.72 241.29 22.19 241.29 24.01C241.29 25.83 239.82 27.3 238 27.3C236.18 27.3 234.71 25.83 234.71 24.01C234.71 22.19 236.18 20.72 238 20.72ZM238 15.47C233.29 15.47 229.45 19.3 229.45 24.02C229.45 28.74 233.28 32.57 238 32.57C242.72 32.57 246.55 28.74 246.55 24.02C246.55 19.3 242.72 15.47 238 15.47Z" fill="#530F83"/>
<path d="M256.17 29.93C252.91 29.93 250.25 27.27 250.25 24.01C250.25 20.75 252.91 18.09 256.17 18.09C259.43 18.09 262.09 20.75 262.09 24.01C262.09 27.27 259.43 29.93 256.17 29.93Z" fill="#530F83"/>
<path d="M256.17 20.72C257.99 20.72 259.46 22.19 259.46 24.01C259.46 25.83 257.99 27.3 256.17 27.3C254.35 27.3 252.88 25.83 252.88 24.01C252.88 22.19 254.35 20.72 256.17 20.72ZM256.17 15.47C251.46 15.47 247.62 19.3 247.62 24.02C247.62 28.74 251.45 32.57 256.17 32.57C260.89 32.57 264.72 28.74 264.72 24.02C264.72 19.3 260.89 15.47 256.17 15.47Z" fill="#530F83"/>
<path d="M238 40.13C234.74 40.13 232.08 37.47 232.08 34.21C232.08 30.95 234.74 28.29 238 28.29C241.26 28.29 243.92 30.95 243.92 34.21C243.92 37.47 241.26 40.13 238 40.13Z" fill="#530F83"/>
<path d="M238 30.92C239.82 30.92 241.29 32.39 241.29 34.21C241.29 36.03 239.82 37.5 238 37.5C236.18 37.5 234.71 36.03 234.71 34.21C234.71 32.39 236.18 30.92 238 30.92ZM238 25.67C233.29 25.67 229.45 29.5 229.45 34.22C229.45 38.94 233.28 42.77 238 42.77C242.72 42.77 246.55 38.94 246.55 34.22C246.55 29.5 242.72 25.67 238 25.67Z" fill="#530F83"/>
<path d="M256.17 40.13C252.91 40.13 250.25 37.47 250.25 34.21C250.25 30.95 252.91 28.29 256.17 28.29C259.43 28.29 262.09 30.95 262.09 34.21C262.09 37.47 259.43 40.13 256.17 40.13Z" fill="#530F83"/>
<path d="M256.17 30.92C257.99 30.92 259.46 32.39 259.46 34.21C259.46 36.03 257.99 37.5 256.17 37.5C254.35 37.5 252.88 36.03 252.88 34.21C252.88 32.39 254.35 30.92 256.17 30.92ZM256.17 25.67C251.46 25.67 247.62 29.5 247.62 34.22C247.62 38.94 251.45 42.77 256.17 42.77C260.89 42.77 264.72 38.94 264.72 34.22C264.72 29.5 260.89 25.67 256.17 25.67Z" fill="#530F83"/>
<path d="M214.45 40.31C213.01 40.31 211.56 40.3 210.12 40.31C209.27 40.32 208.63 39.98 208.18 39.27C207.83 38.72 207.48 38.18 207.14 37.62C206.46 36.52 205.79 35.4 205.09 34.31C204.89 33.99 204.63 33.7 204.36 33.44C203.95 33.04 203.66 33.04 203.27 33.45C202.96 33.78 202.67 34.14 202.43 34.53C201.76 35.6 201.12 36.68 200.45 37.75C200.06 38.37 199.66 38.98 199.22 39.57C198.88 40.03 198.39 40.25 197.82 40.28C197.5 40.3 197.18 40.3 196.85 40.31C194.38 40.31 191.9 40.31 189.43 40.31C188.99 40.31 188.54 40.3 188.1 40.24C187.39 40.15 187.05 39.77 187.08 39.05C187.11 38.48 187.21 37.9 187.33 37.34C187.65 35.91 188.23 34.56 188.92 33.27C189.93 31.36 190.98 29.48 192.01 27.59C192.55 26.61 193.11 25.64 193.46 24.57C193.54 24.33 193.56 24.07 193.6 23.82C193.64 23.55 193.5 23.37 193.29 23.22C192.98 23 192.62 22.91 192.26 22.89C191.35 22.84 190.45 22.81 189.54 22.77C188.86 22.74 188.2 22.63 187.55 22.42C186.43 22.06 185.85 21.27 185.61 20.16C185.27 18.6 185.89 17.4 187.01 16.4C188.28 15.27 189.76 14.47 191.32 13.8C193.17 13.01 195.07 12.38 196.97 11.76C197.2 11.69 197.41 11.59 197.64 11.52C197.85 11.45 197.93 11.31 197.94 11.1C197.96 10.68 197.98 10.26 198.02 9.85C198.14 8.68 198.34 7.53 198.91 6.48C199.79 4.83 201.19 3.95 203.04 3.75C204.03 3.65 205.01 3.73 205.96 4.04C207.34 4.48 208.26 5.43 208.85 6.71C209.3 7.69 209.53 8.74 209.62 9.82C209.66 10.26 209.68 10.69 209.7 11.13C209.7 11.33 209.78 11.46 209.98 11.52C210.69 11.75 211.4 11.99 212.1 12.24C213.33 12.68 214.56 13.11 215.78 13.57C217.24 14.12 218.62 14.84 219.88 15.78C220.7 16.4 221.45 17.09 221.85 18.06C222.38 19.35 222.21 20.58 221.33 21.66C220.89 22.21 220.23 22.41 219.56 22.58C218.85 22.75 218.12 22.77 217.39 22.8C216.72 22.83 216.05 22.84 215.38 22.89C215.1 22.91 214.81 22.99 214.55 23.11C214 23.36 213.98 23.6 214.06 24.11C214.16 24.75 214.44 25.34 214.74 25.91C215.55 27.4 216.39 28.88 217.19 30.38C217.92 31.75 218.65 33.13 219.31 34.54C219.84 35.67 220.27 36.86 220.47 38.11C220.52 38.43 220.56 38.75 220.56 39.07C220.58 39.79 220.22 40.19 219.5 40.26C219.11 40.3 218.72 40.32 218.32 40.32C217.03 40.32 215.74 40.32 214.45 40.32V40.31Z" fill="#8D3BDE"/>
<path d="M273.79 35.74C273.66 35.3 273.48 34.9 273.42 34.47C273.15 32.38 274.34 30.79 276.2 30.4C276.29 30.38 276.4 30.31 276.43 30.23C277.17 28.37 277.86 26.48 278.31 24.53C278.65 23.02 278.9 21.49 279.19 19.97C279.21 19.88 279.2 19.79 279.21 19.69C278.4 19.65 277.68 19.44 277.18 18.76C276.85 18.32 276.68 17.82 276.71 17.27C276.75 16.52 277.07 15.91 277.68 15.46C278.29 15 279.01 15.01 279.78 15.02C277.9 13.39 277.11 11.38 277.47 8.97999C277.72 7.28999 278.62 5.93999 279.98 4.91999C282.53 3.00999 286.29 3.42999 288.42 5.81999C290.63 8.30999 290.63 12.61 287.6 15.02C287.88 15.02 288.12 15.02 288.37 15.02C289.8 15.07 290.81 16.21 290.67 17.63C290.58 18.61 289.77 19.47 288.79 19.62C288.61 19.65 288.42 19.66 288.18 19.69C288.21 19.96 288.25 20.24 288.28 20.51C288.48 22.05 288.78 23.57 289.18 25.06C289.64 26.8 290.26 28.48 290.91 30.15C290.97 30.3 291.04 30.38 291.2 30.41C293.02 30.82 294.62 33.04 293.77 35.35C293.73 35.46 293.68 35.57 293.62 35.7C293.68 35.73 293.75 35.77 293.81 35.79C294.92 36.21 295.5 37.26 295.29 38.43C295.15 39.22 294.29 40.3 292.98 40.29C287.09 40.28 281.2 40.29 275.31 40.29C274.82 40.29 274.31 40.32 273.83 40.22C272.77 40 272.07 39.08 272.05 37.95C272.03 36.95 272.72 36.04 273.74 35.74C273.77 35.74 273.79 35.72 273.8 35.72L273.79 35.74Z" fill="#FF1178"/>
<path d="M261.93 3.70999H232.25C230.34 3.70999 228.79 5.25999 228.79 7.16999V36.85C228.79 38.76 230.34 40.31 232.25 40.31H261.93C263.84 40.31 265.39 38.76 265.39 36.85V7.16999C265.39 5.25999 263.84 3.70999 261.93 3.70999ZM238 35.5C236.18 35.5 234.71 34.03 234.71 32.21C234.71 30.39 236.18 28.92 238 28.92C239.82 28.92 241.29 30.39 241.29 32.21C241.29 34.03 239.82 35.5 238 35.5ZM238 25.31C236.18 25.31 234.71 23.83 234.71 22.02C234.71 20.21 236.18 18.73 238 18.73C239.82 18.73 241.29 20.2 241.29 22.02C241.29 23.84 239.82 25.31 238 25.31ZM238 15.11C236.18 15.11 234.71 13.64 234.71 11.82C234.71 9.99999 236.18 8.52999 238 8.52999C239.82 8.52999 241.29 10.01 241.29 11.82C241.29 13.63 239.82 15.11 238 15.11ZM256.17 35.51C254.35 35.51 252.88 34.04 252.88 32.22C252.88 30.4 254.35 28.93 256.17 28.93C257.99 28.93 259.46 30.4 259.46 32.22C259.46 34.04 257.98 35.51 256.17 35.51ZM256.17 25.32C254.35 25.32 252.88 23.84 252.88 22.03C252.88 20.22 254.35 18.74 256.17 18.74C257.99 18.74 259.46 20.21 259.46 22.03C259.46 23.85 257.98 25.32 256.17 25.32ZM256.17 15.12C254.35 15.12 252.88 13.65 252.88 11.83C252.88 10.01 254.35 8.53999 256.17 8.53999C257.99 8.53999 259.46 10.02 259.46 11.83C259.46 13.64 257.98 15.12 256.17 15.12Z" fill="#F0F4F8"/>
</g>
<defs>
<clipPath id="clip0_4_511">
<rect width="300.59" height="48" fill="white"/>
</clipPath>
</defs>
</svg>
